# xmcd
#
# Track frame offsets: 
#        183
#        13210
#        22250
#        33943
#        45525
#        57020
#        69948
#        80748
#        92575
#        108758
#        118703
#        129655
#        140773
#        149838
#
# Disc length: 2096 seconds
#
# Revision: 3
# Processed by: cddbd v1.5.2PL0 Copyright (c) Steve Scherf et al.
# Submitted via: ExactAudioCopy v0.99pb5
#
DISCID=c8082e0e
DTITLE=Various Artist - Salut les copains Vol 2 - CD 1
DYEAR=1900
DGENRE=Rock and Roll
TTITLE0=Johnny Hallyday /Retiens la nuit
TTITLE1=Eddy Mitchell - Be bop a lula
TTITLE2=Sylvie Vartan - Tous mes copains
TTITLE3=Christophe - Les marionnettes
TTITLE4=Richard Anthony - Nouvelle vague
TTITLE5=Guy Mardel - N'avoue jamais
TTITLE6=Nino Ferrer - Mirza
TTITLE7=Les Surfs - A présent tu peux t'en aller
TTITLE8=Pascal Danel - La plage aux romantiques
TTITLE9=Claude François - Belles, belles, belles
TTITLE10=Les Gam's - Il a le truc
TTITLE11=Monty - Ce n'est pas vrai
TTITLE12=Lucky Blondo - Sheila
TTITLE13=Les Chaussettes Noires - Dactylo Rock
EXTD=
EXTT0=
EXTT1=
EXTT2=
EXTT3=
EXTT4=
EXTT5=
EXTT6=
EXTT7=
EXTT8=
EXTT9=
EXTT10=
EXTT11=
EXTT12=
EXTT13=
PLAYORDER=
